<mxfile host="app.diagrams.net" agent="Mozilla/5.0 (Windows NT 10.0; Win64; x64) AppleWebKit/537.36 (KHTML, like Gecko) Chrome/136.0.0.0 Safari/537.36 Edg/136.0.0.0" version="27.1.1">
  <diagram name="PÃ¡gina-1" id="gx2sNBhWUMIWt3IAhmol">
    <mxGraphModel dx="1594" dy="978" grid="1" gridSize="10" guides="1" tooltips="1" connect="1" arrows="1" fold="1" page="1" pageScale="1" pageWidth="827" pageHeight="1169" math="0" shadow="0">
      <root>
        <mxCell id="0" />
        <mxCell id="1" parent="0" />
        <mxCell id="l61VkiETOuSehqePeORV-9" style="edgeStyle=orthogonalEdgeStyle;rounded=0;orthogonalLoop=1;jettySize=auto;html=1;" edge="1" parent="1" source="l61VkiETOuSehqePeORV-1" target="l61VkiETOuSehqePeORV-2">
          <mxGeometry relative="1" as="geometry" />
        </mxCell>
        <mxCell id="l61VkiETOuSehqePeORV-1" value="Inicio" style="rounded=1;whiteSpace=wrap;html=1;" vertex="1" parent="1">
          <mxGeometry x="354" y="330" width="120" height="40" as="geometry" />
        </mxCell>
        <mxCell id="l61VkiETOuSehqePeORV-10" style="edgeStyle=orthogonalEdgeStyle;rounded=0;orthogonalLoop=1;jettySize=auto;html=1;" edge="1" parent="1" source="l61VkiETOuSehqePeORV-2" target="l61VkiETOuSehqePeORV-3">
          <mxGeometry relative="1" as="geometry" />
        </mxCell>
        <mxCell id="l61VkiETOuSehqePeORV-2" value="F, C" style="rounded=0;whiteSpace=wrap;html=1;" vertex="1" parent="1">
          <mxGeometry x="354" y="410" width="120" height="40" as="geometry" />
        </mxCell>
        <mxCell id="l61VkiETOuSehqePeORV-11" style="edgeStyle=orthogonalEdgeStyle;rounded=0;orthogonalLoop=1;jettySize=auto;html=1;" edge="1" parent="1" source="l61VkiETOuSehqePeORV-3" target="l61VkiETOuSehqePeORV-5">
          <mxGeometry relative="1" as="geometry" />
        </mxCell>
        <mxCell id="l61VkiETOuSehqePeORV-3" value="Print Pedir F" style="shape=document;whiteSpace=wrap;html=1;boundedLbl=1;" vertex="1" parent="1">
          <mxGeometry x="354" y="490" width="120" height="40" as="geometry" />
        </mxCell>
        <mxCell id="l61VkiETOuSehqePeORV-12" style="edgeStyle=orthogonalEdgeStyle;rounded=0;orthogonalLoop=1;jettySize=auto;html=1;" edge="1" parent="1" source="l61VkiETOuSehqePeORV-5" target="l61VkiETOuSehqePeORV-6">
          <mxGeometry relative="1" as="geometry" />
        </mxCell>
        <mxCell id="l61VkiETOuSehqePeORV-5" value="F" style="shape=parallelogram;perimeter=parallelogramPerimeter;whiteSpace=wrap;html=1;fixedSize=1;" vertex="1" parent="1">
          <mxGeometry x="354" y="570" width="120" height="40" as="geometry" />
        </mxCell>
        <mxCell id="l61VkiETOuSehqePeORV-13" style="edgeStyle=orthogonalEdgeStyle;rounded=0;orthogonalLoop=1;jettySize=auto;html=1;" edge="1" parent="1" source="l61VkiETOuSehqePeORV-6" target="l61VkiETOuSehqePeORV-8">
          <mxGeometry relative="1" as="geometry" />
        </mxCell>
        <mxCell id="l61VkiETOuSehqePeORV-6" value="C=5*(F-32)/9" style="shape=process;whiteSpace=wrap;html=1;backgroundOutline=1;" vertex="1" parent="1">
          <mxGeometry x="354" y="650" width="120" height="40" as="geometry" />
        </mxCell>
        <mxCell id="l61VkiETOuSehqePeORV-7" value="Fim" style="ellipse;whiteSpace=wrap;html=1;" vertex="1" parent="1">
          <mxGeometry x="374" y="800" width="80" height="50" as="geometry" />
        </mxCell>
        <mxCell id="l61VkiETOuSehqePeORV-14" style="edgeStyle=orthogonalEdgeStyle;rounded=0;orthogonalLoop=1;jettySize=auto;html=1;entryX=0.5;entryY=0;entryDx=0;entryDy=0;" edge="1" parent="1" source="l61VkiETOuSehqePeORV-8" target="l61VkiETOuSehqePeORV-7">
          <mxGeometry relative="1" as="geometry" />
        </mxCell>
        <mxCell id="l61VkiETOuSehqePeORV-8" value="Print C" style="shape=document;whiteSpace=wrap;html=1;boundedLbl=1;" vertex="1" parent="1">
          <mxGeometry x="354" y="730" width="120" height="40" as="geometry" />
        </mxCell>
      </root>
    </mxGraphModel>
  </diagram>
</mxfile>
